<svg xmlns="http://www.w3.org/2000/svg" viewBox="0 0 228 148"><path fill="#ffc836" stroke="#000" stroke-width="7.415493" d="M142.3 67.6c.6-4.7.4-5.4 4-4.6h.8c2.7.2 6.2-.4 8.3-1.3 4.4-2.1 7-5.5 2.7-4.6-10 2-10.7-1.4-10.7-1.4 10.5-15.6 15-35.5 11.1-40.3-10.3-13.3-28.3-7-28.6-6.8h-.1c-2-.4-4.2-.7-6.7-.7-4.5 0-8 1.2-10.5 3.1 0 0-32-13.2-30.6 16.6.4 6.4 9.1 48 19.6 35.4 3.8-4.6 7.5-8.4 7.5-8.4 1.8 1.2 4 1.8 6.3 1.6l.2-.2a7 7 0 000 1.8c-2.6 3-1.8 3.5-7.2 4.7-5.4 1-2.2 3-.2 3.6 2.6.6 8.4 1.5 12.4-4l-.2.6c1.1.9 1 6.1 1.2 9.8.1 3.8.4 7.3 1.1 9.3.8 2 1.7 7.4 8.8 5.9 5.9-1.3 10.4-3.1 10.8-20.1"/><path fill="#ff0" d="M105.4 54.2a2.4 2.4 0 114.8 0c0 1.3-1.1 2.4-2.4 2.4-1.3 0-2.4-1-2.4-2.4z"/><g fill="#336791"><path stroke="#000" stroke-width="7.415493" d="M85.7 80.4c-.6 4.7-.4 5.4-4 4.6H81c-2.7-.2-6.2.4-8.3 1.3-4.4 2.1-7 5.5-2.7 4.6 10-2 10.7 1.4 10.7 1.4-10.5 15.6-15 35.5-11.1 40.3 10.3 13.3 28.3 7 28.6 6.8h.1c2 .4 4.2.7 6.7.7 4.5 0 8-1.2 10.5-3.1 0 0 32 13.2 30.6-16.6-.4-6.4-9.1-48-19.6-35.4-3.8 4.6-7.5 8.4-7.5 8.4a9.7 9.7 0 00-6.3-1.6l-.2.2a7 7 0 000-1.8c2.6-3 1.8-3.5 7.2-4.7 5.4-1 2.2-3 .2-3.6-2.6-.6-8.4-1.5-12.4 4l.2-.6c-1.1-.9-1-6.1-1.2-9.8-.1-3.8-.4-7.3-1.1-9.3-.8-2-1.7-7.4-8.8-5.9-5.9 1.3-10.4 3.1-10.8 20.1"/><path d="M70 91c10-2.1 10.6 1.3 10.6 1.3-10.5 15.6-15 35.5-11.1 40.3 10.3 13.3 28.3 7 28.6 6.8h.1c2 .4 4.2.7 6.7.7 4.5 0 8-1.2 10.5-3.1 0 0 32 13.2 30.6-16.6-.4-6.4-9.1-48-19.6-35.4-3.8 4.6-7.5 8.4-7.5 8.4a9.7 9.7 0 00-6.3-1.6l-.2.2a7 7 0 000-1.8c2.6-3 1.8-3.5 7.2-4.7 5.5-1 2.2-3 .2-3.6-2.6-.6-8.4-1.5-12.4 4l.2-.6c-1.1-.9-1.8-5.5-1.7-9.7.1-4.3.2-7.2-.6-9.4s-1.7-7.4-8.8-5.9c-5.9 1.3-9 4.6-9.4 10-.3 4-1 3.4-1 6.9l-.6 1.6c-.6 5.3 0 7-3.7 6.2h-.9c-2.7-.2-6.2.4-8.3 1.3-4.4 2.1-7 5.5-2.7 4.6z"/><g stroke="#ffc836" stroke-linecap="round" stroke-width="15.6"><g stroke-linejoin="round"><path stroke-width="2.477124" d="M107 88c.2-10-.1-19.8-1-22.2-1-2.4-3-7.1-10.2-5.6-5.9 1.3-8 3.7-9 9.1-.7 4-2 15.1-2.2 17.4M115.5 137.2s32 13 30.5-16.7c-.3-6.4-9-48-19.5-35.4-3.8 4.6-7.3 8.2-7.3 8.2M98.1 139.6c1.2-.4-17.8 6.9-28.6-6.9-3.8-4.8.6-24.7 11.2-40.3"/></g><path stroke-linejoin="bevel" stroke-width="2.477124" d="M80.7 92.4S80 89 70 91c-4.4.9-1.7-2.6 2.7-4.6 3.7-1.7 11.8-2.2 12 .2.3 6-4.3 4.2-4 5.7.3 1.3 2.4 2.7 3.7 6 1.2 2.9 16.5 25.2-4.2 21.9-.7.1 5.4 19.6 24.7 20 19.4.3 18.7-23.8 18.7-23.8"/><path stroke-linejoin="round" stroke-width="2.477124" d="M112.4 90.3c2.7-3 1.9-3.5 7.3-4.6 5.4-1.2 2.2-3.2.1-3.7-2.5-.6-8.4-1.5-12.3 4-1.2 1.7 0 4.4 1.6 5.1.8.3 2 .8 3.3-.8z"/><path stroke-linejoin="round" stroke-width="2.477124" d="M112.6 90.4c.2 1.7-.6 3.8-1.5 6.3-1.4 3.7-4.6 7.4-2 19.1 1.8 8.8 14.5 1.8 14.5.7 0-1.2-.5-6 .2-11.7 1-7.3-4.6-13.5-11.2-12.8"/></g></g><g stroke="#ffc836"><path fill="#ffc836" stroke-width=".825708" d="M115.6 116.6c0-.4-.8-1.4-1.8-1.6-1-.1-2 .7-2 1.1 0 .4.7.9 1.8 1 1 .2 2 0 2-.5z"/><path fill="#ffc836" stroke-width=".412854" d="M84 117.5c-.1-.4.7-1.5 1.7-1.7 1-.1 2 .7 2 1.1 0 .4-.7.9-1.8 1s-2 0-2-.4z"/><path fill="#336791" stroke-linecap="round" stroke-linejoin="round" stroke-width="2.477124" d="M80.2 120.3c-.2-3.2.7-5.4.8-8.7.2-5-2.3-10.6 1.4-16.2"/></g><g fill="#ffc836"><path d="M158 57c-10 2.1-10.6-1.3-10.6-1.3 10.5-15.6 15-35.5 11.1-40.3-10.3-13.3-28.3-7-28.6-6.8h-.1c-2-.4-4.2-.7-6.7-.7-4.5 0-8 1.2-10.5 3.1 0 0-32-13.2-30.6 16.6.4 6.4 9.1 48 19.6 35.4 3.8-4.6 7.5-8.5 7.5-8.5 1.8 1.3 4 1.9 6.3 1.7l.2-.2a7 7 0 000 1.8c-2.6 3-1.8 3.5-7.2 4.7-5.5 1-2.3 3-.2 3.6 2.6.6 8.4 1.5 12.4-4l-.2.6c1.1.9 1.8 5.5 1.7 9.7-.1 4.3-.2 7.2.6 9.4s1.7 7.4 8.8 5.9c5.9-1.3 9-4.6 9.4-10 .3-4 1-3.4 1-6.9l.6-1.6c.6-5.3 0-7 3.7-6.2h.9c2.7.2 6.2-.4 8.3-1.3 4.4-2.1 7-5.5 2.7-4.6z"/><path d="M142.3 67.6c.6-4.7.4-5.4 4-4.6h.8c2.7.2 6.2-.4 8.3-1.3 4.4-2.1 7-5.5 2.7-4.6-10 2-10.7-1.4-10.7-1.4 10.5-15.6 15-35.5 11.1-40.3-10.3-13.3-28.3-7-28.6-6.8h-.1c-2-.4-4.2-.7-6.7-.7-4.5 0-8 1.2-10.5 3.1 0 0-32-13.2-30.6 16.6.4 6.4 9.1 48 19.6 35.4 3.8-4.6 7.5-8.4 7.5-8.4 1.8 1.2 4 1.8 6.3 1.6l.2-.2a7 7 0 000 1.8c-2.6 3-1.8 3.5-7.2 4.7-5.4 1-2.2 3-.2 3.6 2.6.6 8.4 1.5 12.4-4l-.2.6c1.1.9 1 6.1 1.2 9.8.1 3.8.4 7.3 1.1 9.3.8 2 1.7 7.4 8.8 5.9 5.9-1.3 10.4-3.1 10.8-20.1"/><g stroke="#336791" stroke-linecap="round" stroke-width="15.6"><g stroke-linejoin="round"><path stroke-width="2.477124" d="M112.5 10.8s-32-13-30.5 16.7c.3 6.4 9 48 19.5 35.4 3.8-4.6 7.3-8.2 7.3-8.2M121 60c-.2 10 .1 19.8 1 22.2 1 2.4 3 7.1 10.2 5.6 5.9-1.3 8-3.7 9-9.2.7-4 2-15 2.1-17.3M129.9 8.4c-1.2.4 17.8-6.9 28.6 6.9 3.8 4.8-.6 24.7-11.2 40.3"/></g><path stroke-linejoin="bevel" stroke-width="2.477124" d="M147.3 55.6S148 59 158 57c4.4-.9 1.7 2.6-2.7 4.6-3.7 1.7-11.8 2.2-12-.2-.3-6 4.3-4.2 4-5.7-.3-1.3-2.4-2.7-3.7-6-1.2-3-16.5-25.2 4.2-21.9.7-.1-5.4-19.6-24.7-20-19.4-.3-18.7 23.8-18.7 23.8"/><path stroke-linejoin="round" stroke-width="2.477124" d="M115.6 57.7c-2.7 3-1.9 3.5-7.3 4.6-5.4 1.2-2.2 3.2-.1 3.7 2.5.6 8.4 1.5 12.3-4 1.2-1.7 0-4.4-1.6-5.1-.8-.3-2-.8-3.3.8z"/><path stroke-linejoin="round" stroke-width="2.477124" d="M115.4 57.6c-.2-1.7.6-3.8 1.5-6.3 1.4-3.7 4.6-7.4 2-19.1-1.8-8.8-14.5-1.9-14.5-.7s.5 6-.2 11.7c-1 7.3 4.6 13.5 11.2 12.8"/></g></g><g stroke="#336791"><path fill="#336791" stroke-width=".825708" d="M112.4 31.4c0 .4.8 1.4 1.8 1.6 1 .1 2-.7 2-1.1 0-.4-.7-.9-1.8-1-1-.2-2 0-2 .5z"/><path fill="#336791" stroke-width=".412854" d="M144 30.5c.1.4-.7 1.5-1.7 1.7-1 .1-2-.7-2-1.1 0-.4.7-.9 1.8-1s2 0 2 .4z"/><path fill="#ffc836" stroke-linecap="round" stroke-linejoin="round" stroke-width="2.477124" d="M147.8 27.7c.2 3.2-.7 5.4-.8 8.7-.2 5 2.3 10.6-1.4 16.2"/></g><path fill="#ffc836" stroke="#336791" stroke-linecap="round" stroke-linejoin="round" stroke-width=".6034019999999999" d="M103.8 51h6.6v6.4h-6.6z" color="#000"/><path fill="#336791" stroke="#ffc836" stroke-linecap="round" stroke-linejoin="round" stroke-width="2.477124" d="M107 88c.2-10-.1-19.8-1-22.2-1-2.4-3-7.1-10.2-5.6-5.9 1.3-8 3.7-9 9.1-.7 4-2 15.1-2.2 17.4"/><path fill="#336791" d="M111.7 82.9h22.1v14.4h-22.1z" color="#000"/><path fill="#ffc836" d="M95.8 56h20.1v9.2H95.8z" color="#000"/><g fill="none"><path stroke="#ffc836" stroke-width="1.5878999999999999" d="M113.7 47.6c-2.2 0-4.2.2-6 .5-5.3 1-6.3 3-6.3 6.5v4.8H114V61H96.7a7.8 7.8 0 00-7.8 6.3A23.4 23.4 0 0089 80c1 3.7 3 6.4 6.7 6.4h4.3v-5.7a8 8 0 017.8-7.8h12.5c3.5 0 6.2-2.9 6.2-6.4V54.6c0-3.4-2.8-5.9-6.2-6.5a39 39 0 00-6.5-.5z"/><path stroke="#336791" stroke-width="2.38185" d="M128 61v5.5a8 8 0 01-7.8 8h-12.5c-3.4 0-6.3 2.9-6.3 6.3v12c0 3.3 3 5.3 6.3 6.3a21 21 0 0012.5 0c3.1-1 6.2-2.8 6.2-6.4V88H114v-1.6h18.8c3.6 0 5-2.6 6.2-6.4 1.3-3.9 1.3-7.6 0-12.7-.9-3.6-2.6-6.3-6.2-6.3z"/><path stroke="#ffc836" stroke-width="2.38185" d="M113.7 47.6c-2.2 0-4.2.2-6 .5-5.3 1-6.3 3-6.3 6.5v4.8H114V61H96.7a7.8 7.8 0 00-7.8 6.3A23.4 23.4 0 0089 80c1 3.7 3 6.4 6.7 6.4h4.3v-5.7a8 8 0 017.8-7.8h12.5c3.5 0 6.2-2.9 6.2-6.4V54.6c0-3.4-2.8-5.9-6.2-6.5a39 39 0 00-6.5-.5z"/><path stroke="#336791" stroke-width="1.5878999999999999" d="M128 61v5.5a8 8 0 01-7.8 8h-12.5c-3.4 0-6.3 2.9-6.3 6.3v12c0 3.3 3 5.3 6.3 6.3a21 21 0 0012.5 0c3.1-1 6.2-2.8 6.2-6.4V88H114v-1.6h18.8c3.6 0 5-2.6 6.2-6.4 1.3-3.9 1.3-7.6 0-12.7-.9-3.6-2.6-6.3-6.2-6.3z"/></g><g><path fill="#336791" d="M113.7 47.6c-2.2 0-4.2.2-6 .5-5.3 1-6.3 3-6.3 6.5v4.8H114V61H96.7a7.8 7.8 0 00-7.8 6.3A23.4 23.4 0 0089 80c1 3.7 3 6.4 6.7 6.4h4.3v-5.7a8 8 0 017.8-7.8h12.5c3.5 0 6.2-2.9 6.2-6.4V54.6c0-3.4-2.8-5.9-6.2-6.5a39 39 0 00-6.5-.5zm-6.8 3.9c1.3 0 2.3 1 2.3 2.4 0 1.3-1 2.3-2.3 2.3-1.3 0-2.3-1-2.3-2.3 0-1.4 1-2.4 2.3-2.4z"/><path fill="#ffc836" d="M128 61v5.5a8 8 0 01-7.8 8h-12.5c-3.4 0-6.3 2.9-6.3 6.3v12c0 3.3 3 5.3 6.3 6.3a21 21 0 0012.5 0c3.1-1 6.2-2.8 6.2-6.4V88H114v-1.6h18.8c3.6 0 5-2.6 6.2-6.4 1.3-3.9 1.3-7.6 0-12.7-.9-3.6-2.6-6.3-6.2-6.3zM121 91c1.3 0 2.3 1.1 2.3 2.4 0 1.3-1 2.4-2.3 2.4-1.3 0-2.4-1-2.4-2.4 0-1.3 1-2.4 2.4-2.4z" color="#000"/><path fill="#336791" d="M127.2 59.8h.7v.6h-.7z" color="#000"/></g></svg>